<?xml version="1.0" encoding="utf-8" standalone="no"?>
<!DOCTYPE svg PUBLIC "-//W3C//DTD SVG 1.1//EN"
  "http://www.w3.org/Graphics/SVG/1.1/DTD/svg11.dtd">
<svg xmlns:xlink="http://www.w3.org/1999/xlink" width="1080pt" height="360pt" viewBox="0 0 1080 360" xmlns="http://www.w3.org/2000/svg" version="1.1">
 <metadata>
  <rdf:RDF xmlns:dc="http://purl.org/dc/elements/1.1/" xmlns:cc="http://creativecommons.org/ns#" xmlns:rdf="http://www.w3.org/1999/02/22-rdf-syntax-ns#">
   <cc:Work>
    <dc:type rdf:resource="http://purl.org/dc/dcmitype/StillImage"/>
    <dc:date>2022-12-06T16:39:52.532685</dc:date>
    <dc:format>image/svg+xml</dc:format>
    <dc:creator>
     <cc:Agent>
      <dc:title>Matplotlib v3.5.1, https://matplotlib.org/</dc:title>
     </cc:Agent>
    </dc:creator>
   </cc:Work>
  </rdf:RDF>
 </metadata>
 <defs>
  <style type="text/css">*{stroke-linejoin: round; stroke-linecap: butt}</style>
 </defs>
 <g id="figure_1">
  <g id="patch_1">
   <path d="M 0 360 
L 1080 360 
L 1080 0 
L 0 0 
z
" style="fill: #ffffff"/>
  </g>
  <g id="axes_1">
   <g id="patch_2">
    <path d="M 135 320.4 
L 972 320.4 
L 972 43.2 
L 135 43.2 
z
" style="fill: #eaeaf2"/>
   </g>
   <g id="matplotlib.axis_1">
    <g id="xtick_1">
     <g id="line2d_1">
      <path d="M 190.426627 320.4 
L 190.426627 43.2 
" clip-path="url(#p3439b8b87d)" style="fill: none; stroke: #ffffff; stroke-linecap: round"/>
     </g>
     <g id="text_1">
      <!-- 1 -->
      <g style="fill: #262626" transform="translate(187.368111 337.773594)scale(0.11 -0.11)">
       <defs>
        <path id="ArialMT-31" d="M 2384 0 
L 1822 0 
L 1822 3584 
Q 1619 3391 1289 3197 
Q 959 3003 697 2906 
L 697 3450 
Q 1169 3672 1522 3987 
Q 1875 4303 2022 4600 
L 2384 4600 
L 2384 0 
z
" transform="scale(0.015625)"/>
       </defs>
       <use xlink:href="#ArialMT-31"/>
      </g>
     </g>
    </g>
    <g id="xtick_2">
     <g id="line2d_2">
      <path d="M 229.051454 320.4 
L 229.051454 43.2 
" clip-path="url(#p3439b8b87d)" style="fill: none; stroke: #ffffff; stroke-linecap: round"/>
     </g>
     <g id="text_2">
      <!-- 2 -->
      <g style="fill: #262626" transform="translate(225.992938 337.773594)scale(0.11 -0.11)">
       <defs>
        <path id="ArialMT-32" d="M 3222 541 
L 3222 0 
L 194 0 
Q 188 203 259 391 
Q 375 700 629 1000 
Q 884 1300 1366 1694 
Q 2113 2306 2375 2664 
Q 2638 3022 2638 3341 
Q 2638 3675 2398 3904 
Q 2159 4134 1775 4134 
Q 1369 4134 1125 3890 
Q 881 3647 878 3216 
L 300 3275 
Q 359 3922 746 4261 
Q 1134 4600 1788 4600 
Q 2447 4600 2831 4234 
Q 3216 3869 3216 3328 
Q 3216 3053 3103 2787 
Q 2991 2522 2730 2228 
Q 2469 1934 1863 1422 
Q 1356 997 1212 845 
Q 1069 694 975 541 
L 3222 541 
z
" transform="scale(0.015625)"/>
       </defs>
       <use xlink:href="#ArialMT-32"/>
      </g>
     </g>
    </g>
    <g id="xtick_3">
     <g id="line2d_3">
      <path d="M 267.676281 320.4 
L 267.676281 43.2 
" clip-path="url(#p3439b8b87d)" style="fill: none; stroke: #ffffff; stroke-linecap: round"/>
     </g>
     <g id="text_3">
      <!-- 3 -->
      <g style="fill: #262626" transform="translate(264.617765 337.773594)scale(0.11 -0.11)">
       <defs>
        <path id="ArialMT-33" d="M 269 1209 
L 831 1284 
Q 928 806 1161 595 
Q 1394 384 1728 384 
Q 2125 384 2398 659 
Q 2672 934 2672 1341 
Q 2672 1728 2419 1979 
Q 2166 2231 1775 2231 
Q 1616 2231 1378 2169 
L 1441 2663 
Q 1497 2656 1531 2656 
Q 1891 2656 2178 2843 
Q 2466 3031 2466 3422 
Q 2466 3731 2256 3934 
Q 2047 4138 1716 4138 
Q 1388 4138 1169 3931 
Q 950 3725 888 3313 
L 325 3413 
Q 428 3978 793 4289 
Q 1159 4600 1703 4600 
Q 2078 4600 2393 4439 
Q 2709 4278 2876 4000 
Q 3044 3722 3044 3409 
Q 3044 3113 2884 2869 
Q 2725 2625 2413 2481 
Q 2819 2388 3044 2092 
Q 3269 1797 3269 1353 
Q 3269 753 2831 336 
Q 2394 -81 1725 -81 
Q 1122 -81 723 278 
Q 325 638 269 1209 
z
" transform="scale(0.015625)"/>
       </defs>
       <use xlink:href="#ArialMT-33"/>
      </g>
     </g>
    </g>
    <g id="xtick_4">
     <g id="line2d_4">
      <path d="M 306.301108 320.4 
L 306.301108 43.2 
" clip-path="url(#p3439b8b87d)" style="fill: none; stroke: #ffffff; stroke-linecap: round"/>
     </g>
     <g id="text_4">
      <!-- 4 -->
      <g style="fill: #262626" transform="translate(303.242592 337.773594)scale(0.11 -0.11)">
       <defs>
        <path id="ArialMT-34" d="M 2069 0 
L 2069 1097 
L 81 1097 
L 81 1613 
L 2172 4581 
L 2631 4581 
L 2631 1613 
L 3250 1613 
L 3250 1097 
L 2631 1097 
L 2631 0 
L 2069 0 
z
M 2069 1613 
L 2069 3678 
L 634 1613 
L 2069 1613 
z
" transform="scale(0.015625)"/>
       </defs>
       <use xlink:href="#ArialMT-34"/>
      </g>
     </g>
    </g>
    <g id="xtick_5">
     <g id="line2d_5">
      <path d="M 344.925934 320.4 
L 344.925934 43.2 
" clip-path="url(#p3439b8b87d)" style="fill: none; stroke: #ffffff; stroke-linecap: round"/>
     </g>
     <g id="text_5">
      <!-- 5 -->
      <g style="fill: #262626" transform="translate(341.867419 337.773594)scale(0.11 -0.11)">
       <defs>
        <path id="ArialMT-35" d="M 266 1200 
L 856 1250 
Q 922 819 1161 601 
Q 1400 384 1738 384 
Q 2144 384 2425 690 
Q 2706 997 2706 1503 
Q 2706 1984 2436 2262 
Q 2166 2541 1728 2541 
Q 1456 2541 1237 2417 
Q 1019 2294 894 2097 
L 366 2166 
L 809 4519 
L 3088 4519 
L 3088 3981 
L 1259 3981 
L 1013 2750 
Q 1425 3038 1878 3038 
Q 2478 3038 2890 2622 
Q 3303 2206 3303 1553 
Q 3303 931 2941 478 
Q 2500 -78 1738 -78 
Q 1113 -78 717 272 
Q 322 622 266 1200 
z
" transform="scale(0.015625)"/>
       </defs>
       <use xlink:href="#ArialMT-35"/>
      </g>
     </g>
    </g>
    <g id="xtick_6">
     <g id="line2d_6">
      <path d="M 383.550761 320.4 
L 383.550761 43.2 
" clip-path="url(#p3439b8b87d)" style="fill: none; stroke: #ffffff; stroke-linecap: round"/>
     </g>
     <g id="text_6">
      <!-- 6 -->
      <g style="fill: #262626" transform="translate(380.492246 337.773594)scale(0.11 -0.11)">
       <defs>
        <path id="ArialMT-36" d="M 3184 3459 
L 2625 3416 
Q 2550 3747 2413 3897 
Q 2184 4138 1850 4138 
Q 1581 4138 1378 3988 
Q 1113 3794 959 3422 
Q 806 3050 800 2363 
Q 1003 2672 1297 2822 
Q 1591 2972 1913 2972 
Q 2475 2972 2870 2558 
Q 3266 2144 3266 1488 
Q 3266 1056 3080 686 
Q 2894 316 2569 119 
Q 2244 -78 1831 -78 
Q 1128 -78 684 439 
Q 241 956 241 2144 
Q 241 3472 731 4075 
Q 1159 4600 1884 4600 
Q 2425 4600 2770 4297 
Q 3116 3994 3184 3459 
z
M 888 1484 
Q 888 1194 1011 928 
Q 1134 663 1356 523 
Q 1578 384 1822 384 
Q 2178 384 2434 671 
Q 2691 959 2691 1453 
Q 2691 1928 2437 2201 
Q 2184 2475 1800 2475 
Q 1419 2475 1153 2201 
Q 888 1928 888 1484 
z
" transform="scale(0.015625)"/>
       </defs>
       <use xlink:href="#ArialMT-36"/>
      </g>
     </g>
    </g>
    <g id="xtick_7">
     <g id="line2d_7">
      <path d="M 422.175588 320.4 
L 422.175588 43.2 
" clip-path="url(#p3439b8b87d)" style="fill: none; stroke: #ffffff; stroke-linecap: round"/>
     </g>
     <g id="text_7">
      <!-- 7 -->
      <g style="fill: #262626" transform="translate(419.117073 337.773594)scale(0.11 -0.11)">
       <defs>
        <path id="ArialMT-37" d="M 303 3981 
L 303 4522 
L 3269 4522 
L 3269 4084 
Q 2831 3619 2401 2847 
Q 1972 2075 1738 1259 
Q 1569 684 1522 0 
L 944 0 
Q 953 541 1156 1306 
Q 1359 2072 1739 2783 
Q 2119 3494 2547 3981 
L 303 3981 
z
" transform="scale(0.015625)"/>
       </defs>
       <use xlink:href="#ArialMT-37"/>
      </g>
     </g>
    </g>
    <g id="xtick_8">
     <g id="line2d_8">
      <path d="M 460.800415 320.4 
L 460.800415 43.2 
" clip-path="url(#p3439b8b87d)" style="fill: none; stroke: #ffffff; stroke-linecap: round"/>
     </g>
     <g id="text_8">
      <!-- 8 -->
      <g style="fill: #262626" transform="translate(457.7419 337.773594)scale(0.11 -0.11)">
       <defs>
        <path id="ArialMT-38" d="M 1131 2484 
Q 781 2613 612 2850 
Q 444 3088 444 3419 
Q 444 3919 803 4259 
Q 1163 4600 1759 4600 
Q 2359 4600 2725 4251 
Q 3091 3903 3091 3403 
Q 3091 3084 2923 2848 
Q 2756 2613 2416 2484 
Q 2838 2347 3058 2040 
Q 3278 1734 3278 1309 
Q 3278 722 2862 322 
Q 2447 -78 1769 -78 
Q 1091 -78 675 323 
Q 259 725 259 1325 
Q 259 1772 486 2073 
Q 713 2375 1131 2484 
z
M 1019 3438 
Q 1019 3113 1228 2906 
Q 1438 2700 1772 2700 
Q 2097 2700 2305 2904 
Q 2513 3109 2513 3406 
Q 2513 3716 2298 3927 
Q 2084 4138 1766 4138 
Q 1444 4138 1231 3931 
Q 1019 3725 1019 3438 
z
M 838 1322 
Q 838 1081 952 856 
Q 1066 631 1291 507 
Q 1516 384 1775 384 
Q 2178 384 2440 643 
Q 2703 903 2703 1303 
Q 2703 1709 2433 1975 
Q 2163 2241 1756 2241 
Q 1359 2241 1098 1978 
Q 838 1716 838 1322 
z
" transform="scale(0.015625)"/>
       </defs>
       <use xlink:href="#ArialMT-38"/>
      </g>
     </g>
    </g>
    <g id="xtick_9">
     <g id="line2d_9">
      <path d="M 499.425242 320.4 
L 499.425242 43.2 
" clip-path="url(#p3439b8b87d)" style="fill: none; stroke: #ffffff; stroke-linecap: round"/>
     </g>
     <g id="text_9">
      <!-- 9 -->
      <g style="fill: #262626" transform="translate(496.366727 337.773594)scale(0.11 -0.11)">
       <defs>
        <path id="ArialMT-39" d="M 350 1059 
L 891 1109 
Q 959 728 1153 556 
Q 1347 384 1650 384 
Q 1909 384 2104 503 
Q 2300 622 2425 820 
Q 2550 1019 2634 1356 
Q 2719 1694 2719 2044 
Q 2719 2081 2716 2156 
Q 2547 1888 2255 1720 
Q 1963 1553 1622 1553 
Q 1053 1553 659 1965 
Q 266 2378 266 3053 
Q 266 3750 677 4175 
Q 1088 4600 1706 4600 
Q 2153 4600 2523 4359 
Q 2894 4119 3086 3673 
Q 3278 3228 3278 2384 
Q 3278 1506 3087 986 
Q 2897 466 2520 194 
Q 2144 -78 1638 -78 
Q 1100 -78 759 220 
Q 419 519 350 1059 
z
M 2653 3081 
Q 2653 3566 2395 3850 
Q 2138 4134 1775 4134 
Q 1400 4134 1122 3828 
Q 844 3522 844 3034 
Q 844 2597 1108 2323 
Q 1372 2050 1759 2050 
Q 2150 2050 2401 2323 
Q 2653 2597 2653 3081 
z
" transform="scale(0.015625)"/>
       </defs>
       <use xlink:href="#ArialMT-39"/>
      </g>
     </g>
    </g>
    <g id="xtick_10">
     <g id="line2d_10">
      <path d="M 538.050069 320.4 
L 538.050069 43.2 
" clip-path="url(#p3439b8b87d)" style="fill: none; stroke: #ffffff; stroke-linecap: round"/>
     </g>
     <g id="text_10">
      <!-- 10 -->
      <g style="fill: #262626" transform="translate(531.933038 337.773594)scale(0.11 -0.11)">
       <defs>
        <path id="ArialMT-30" d="M 266 2259 
Q 266 3072 433 3567 
Q 600 4063 929 4331 
Q 1259 4600 1759 4600 
Q 2128 4600 2406 4451 
Q 2684 4303 2865 4023 
Q 3047 3744 3150 3342 
Q 3253 2941 3253 2259 
Q 3253 1453 3087 958 
Q 2922 463 2592 192 
Q 2263 -78 1759 -78 
Q 1097 -78 719 397 
Q 266 969 266 2259 
z
M 844 2259 
Q 844 1131 1108 757 
Q 1372 384 1759 384 
Q 2147 384 2411 759 
Q 2675 1134 2675 2259 
Q 2675 3391 2411 3762 
Q 2147 4134 1753 4134 
Q 1366 4134 1134 3806 
Q 844 3388 844 2259 
z
" transform="scale(0.015625)"/>
       </defs>
       <use xlink:href="#ArialMT-31"/>
       <use xlink:href="#ArialMT-30" x="55.615234"/>
      </g>
     </g>
    </g>
    <g id="xtick_11">
     <g id="line2d_11">
      <path d="M 576.674896 320.4 
L 576.674896 43.2 
" clip-path="url(#p3439b8b87d)" style="fill: none; stroke: #ffffff; stroke-linecap: round"/>
     </g>
     <g id="text_11">
      <!-- 11 -->
      <g style="fill: #262626" transform="translate(570.96349 337.773594)scale(0.11 -0.11)">
       <use xlink:href="#ArialMT-31"/>
       <use xlink:href="#ArialMT-31" x="48.240234"/>
      </g>
     </g>
    </g>
    <g id="xtick_12">
     <g id="line2d_12">
      <path d="M 615.299723 320.4 
L 615.299723 43.2 
" clip-path="url(#p3439b8b87d)" style="fill: none; stroke: #ffffff; stroke-linecap: round"/>
     </g>
     <g id="text_12">
      <!-- 12 -->
      <g style="fill: #262626" transform="translate(609.182692 337.773594)scale(0.11 -0.11)">
       <use xlink:href="#ArialMT-31"/>
       <use xlink:href="#ArialMT-32" x="55.615234"/>
      </g>
     </g>
    </g>
    <g id="xtick_13">
     <g id="line2d_13">
      <path d="M 653.92455 320.4 
L 653.92455 43.2 
" clip-path="url(#p3439b8b87d)" style="fill: none; stroke: #ffffff; stroke-linecap: round"/>
     </g>
     <g id="text_13">
      <!-- 13 -->
      <g style="fill: #262626" transform="translate(647.807519 337.773594)scale(0.11 -0.11)">
       <use xlink:href="#ArialMT-31"/>
       <use xlink:href="#ArialMT-33" x="55.615234"/>
      </g>
     </g>
    </g>
    <g id="xtick_14">
     <g id="line2d_14">
      <path d="M 692.549377 320.4 
L 692.549377 43.2 
" clip-path="url(#p3439b8b87d)" style="fill: none; stroke: #ffffff; stroke-linecap: round"/>
     </g>
     <g id="text_14">
      <!-- 14 -->
      <g style="fill: #262626" transform="translate(686.432346 337.773594)scale(0.11 -0.11)">
       <use xlink:href="#ArialMT-31"/>
       <use xlink:href="#ArialMT-34" x="55.615234"/>
      </g>
     </g>
    </g>
    <g id="xtick_15">
     <g id="line2d_15">
      <path d="M 731.174204 320.4 
L 731.174204 43.2 
" clip-path="url(#p3439b8b87d)" style="fill: none; stroke: #ffffff; stroke-linecap: round"/>
     </g>
     <g id="text_15">
      <!-- 15 -->
      <g style="fill: #262626" transform="translate(725.057173 337.773594)scale(0.11 -0.11)">
       <use xlink:href="#ArialMT-31"/>
       <use xlink:href="#ArialMT-35" x="55.615234"/>
      </g>
     </g>
    </g>
    <g id="xtick_16">
     <g id="line2d_16">
      <path d="M 769.799031 320.4 
L 769.799031 43.2 
" clip-path="url(#p3439b8b87d)" style="fill: none; stroke: #ffffff; stroke-linecap: round"/>
     </g>
     <g id="text_16">
      <!-- 16 -->
      <g style="fill: #262626" transform="translate(763.682 337.773594)scale(0.11 -0.11)">
       <use xlink:href="#ArialMT-31"/>
       <use xlink:href="#ArialMT-36" x="55.615234"/>
      </g>
     </g>
    </g>
    <g id="xtick_17">
     <g id="line2d_17">
      <path d="M 808.423858 320.4 
L 808.423858 43.2 
" clip-path="url(#p3439b8b87d)" style="fill: none; stroke: #ffffff; stroke-linecap: round"/>
     </g>
     <g id="text_17">
      <!-- 17 -->
      <g style="fill: #262626" transform="translate(802.306827 337.773594)scale(0.11 -0.11)">
       <use xlink:href="#ArialMT-31"/>
       <use xlink:href="#ArialMT-37" x="55.615234"/>
      </g>
     </g>
    </g>
    <g id="xtick_18">
     <g id="line2d_18">
      <path d="M 847.048685 320.4 
L 847.048685 43.2 
" clip-path="url(#p3439b8b87d)" style="fill: none; stroke: #ffffff; stroke-linecap: round"/>
     </g>
     <g id="text_18">
      <!-- 18 -->
      <g style="fill: #262626" transform="translate(840.931654 337.773594)scale(0.11 -0.11)">
       <use xlink:href="#ArialMT-31"/>
       <use xlink:href="#ArialMT-38" x="55.615234"/>
      </g>
     </g>
    </g>
    <g id="xtick_19">
     <g id="line2d_19">
      <path d="M 885.673512 320.4 
L 885.673512 43.2 
" clip-path="url(#p3439b8b87d)" style="fill: none; stroke: #ffffff; stroke-linecap: round"/>
     </g>
     <g id="text_19">
      <!-- 19 -->
      <g style="fill: #262626" transform="translate(879.556481 337.773594)scale(0.11 -0.11)">
       <use xlink:href="#ArialMT-31"/>
       <use xlink:href="#ArialMT-39" x="55.615234"/>
      </g>
     </g>
    </g>
    <g id="xtick_20">
     <g id="line2d_20">
      <path d="M 924.298339 320.4 
L 924.298339 43.2 
" clip-path="url(#p3439b8b87d)" style="fill: none; stroke: #ffffff; stroke-linecap: round"/>
     </g>
     <g id="text_20">
      <!-- 20 -->
      <g style="fill: #262626" transform="translate(918.181307 337.773594)scale(0.11 -0.11)">
       <use xlink:href="#ArialMT-32"/>
       <use xlink:href="#ArialMT-30" x="55.615234"/>
      </g>
     </g>
    </g>
    <g id="text_21">
     <!-- Ages -->
     <g style="fill: #262626" transform="translate(539.824687 352.549219)scale(0.12 -0.12)">
      <defs>
       <path id="ArialMT-41" d="M -9 0 
L 1750 4581 
L 2403 4581 
L 4278 0 
L 3588 0 
L 3053 1388 
L 1138 1388 
L 634 0 
L -9 0 
z
M 1313 1881 
L 2866 1881 
L 2388 3150 
Q 2169 3728 2063 4100 
Q 1975 3659 1816 3225 
L 1313 1881 
z
" transform="scale(0.015625)"/>
       <path id="ArialMT-67" d="M 319 -275 
L 866 -356 
Q 900 -609 1056 -725 
Q 1266 -881 1628 -881 
Q 2019 -881 2231 -725 
Q 2444 -569 2519 -288 
Q 2563 -116 2559 434 
Q 2191 0 1641 0 
Q 956 0 581 494 
Q 206 988 206 1678 
Q 206 2153 378 2554 
Q 550 2956 876 3175 
Q 1203 3394 1644 3394 
Q 2231 3394 2613 2919 
L 2613 3319 
L 3131 3319 
L 3131 450 
Q 3131 -325 2973 -648 
Q 2816 -972 2473 -1159 
Q 2131 -1347 1631 -1347 
Q 1038 -1347 672 -1080 
Q 306 -813 319 -275 
z
M 784 1719 
Q 784 1066 1043 766 
Q 1303 466 1694 466 
Q 2081 466 2343 764 
Q 2606 1063 2606 1700 
Q 2606 2309 2336 2618 
Q 2066 2928 1684 2928 
Q 1309 2928 1046 2623 
Q 784 2319 784 1719 
z
" transform="scale(0.015625)"/>
       <path id="ArialMT-65" d="M 2694 1069 
L 3275 997 
Q 3138 488 2766 206 
Q 2394 -75 1816 -75 
Q 1088 -75 661 373 
Q 234 822 234 1631 
Q 234 2469 665 2931 
Q 1097 3394 1784 3394 
Q 2450 3394 2872 2941 
Q 3294 2488 3294 1666 
Q 3294 1616 3291 1516 
L 816 1516 
Q 847 969 1125 678 
Q 1403 388 1819 388 
Q 2128 388 2347 550 
Q 2566 713 2694 1069 
z
M 847 1978 
L 2700 1978 
Q 2663 2397 2488 2606 
Q 2219 2931 1791 2931 
Q 1403 2931 1139 2672 
Q 875 2413 847 1978 
z
" transform="scale(0.015625)"/>
       <path id="ArialMT-73" d="M 197 991 
L 753 1078 
Q 800 744 1014 566 
Q 1228 388 1613 388 
Q 2000 388 2187 545 
Q 2375 703 2375 916 
Q 2375 1106 2209 1216 
Q 2094 1291 1634 1406 
Q 1016 1563 777 1677 
Q 538 1791 414 1992 
Q 291 2194 291 2438 
Q 291 2659 392 2848 
Q 494 3038 669 3163 
Q 800 3259 1026 3326 
Q 1253 3394 1513 3394 
Q 1903 3394 2198 3281 
Q 2494 3169 2634 2976 
Q 2775 2784 2828 2463 
L 2278 2388 
Q 2241 2644 2061 2787 
Q 1881 2931 1553 2931 
Q 1166 2931 1000 2803 
Q 834 2675 834 2503 
Q 834 2394 903 2306 
Q 972 2216 1119 2156 
Q 1203 2125 1616 2013 
Q 2213 1853 2448 1751 
Q 2684 1650 2818 1456 
Q 2953 1263 2953 975 
Q 2953 694 2789 445 
Q 2625 197 2315 61 
Q 2006 -75 1616 -75 
Q 969 -75 630 194 
Q 291 463 197 991 
z
" transform="scale(0.015625)"/>
      </defs>
      <use xlink:href="#ArialMT-41"/>
      <use xlink:href="#ArialMT-67" x="66.699219"/>
      <use xlink:href="#ArialMT-65" x="122.314453"/>
      <use xlink:href="#ArialMT-73" x="177.929688"/>
     </g>
    </g>
   </g>
   <g id="matplotlib.axis_2">
    <g id="ytick_1">
     <g id="line2d_21">
      <path d="M 135 293.860236 
L 972 293.860236 
" clip-path="url(#p3439b8b87d)" style="fill: none; stroke: #ffffff; stroke-linecap: round"/>
     </g>
     <g id="text_22">
      <!-- $\mathdefault{10^{1}}$ -->
      <g style="fill: #262626" transform="translate(108.23 299.532111)scale(0.11 -0.11)">
       <use xlink:href="#ArialMT-31" transform="translate(0 0.99375)"/>
       <use xlink:href="#ArialMT-30" transform="translate(55.615234 0.99375)"/>
       <use xlink:href="#ArialMT-31" transform="translate(112.972813 70.6875)scale(0.7)"/>
      </g>
     </g>
    </g>
    <g id="ytick_2">
     <g id="line2d_22">
      <path d="M 135 231.025698 
L 972 231.025698 
" clip-path="url(#p3439b8b87d)" style="fill: none; stroke: #ffffff; stroke-linecap: round"/>
     </g>
     <g id="text_23">
      <!-- $\mathdefault{10^{2}}$ -->
      <g style="fill: #262626" transform="translate(108.23 236.697573)scale(0.11 -0.11)">
       <use xlink:href="#ArialMT-31" transform="translate(0 0.99375)"/>
       <use xlink:href="#ArialMT-30" transform="translate(55.615234 0.99375)"/>
       <use xlink:href="#ArialMT-32" transform="translate(112.972813 70.6875)scale(0.7)"/>
      </g>
     </g>
    </g>
    <g id="ytick_3">
     <g id="line2d_23">
      <path d="M 135 168.191159 
L 972 168.191159 
" clip-path="url(#p3439b8b87d)" style="fill: none; stroke: #ffffff; stroke-linecap: round"/>
     </g>
     <g id="text_24">
      <!-- $\mathdefault{10^{3}}$ -->
      <g style="fill: #262626" transform="translate(108.23 173.863034)scale(0.11 -0.11)">
       <use xlink:href="#ArialMT-31" transform="translate(0 0.99375)"/>
       <use xlink:href="#ArialMT-30" transform="translate(55.615234 0.99375)"/>
       <use xlink:href="#ArialMT-33" transform="translate(112.972813 70.6875)scale(0.7)"/>
      </g>
     </g>
    </g>
    <g id="ytick_4">
     <g id="line2d_24">
      <path d="M 135 105.356621 
L 972 105.356621 
" clip-path="url(#p3439b8b87d)" style="fill: none; stroke: #ffffff; stroke-linecap: round"/>
     </g>
     <g id="text_25">
      <!-- $\mathdefault{10^{4}}$ -->
      <g style="fill: #262626" transform="translate(108.23 110.973496)scale(0.11 -0.11)">
       <use xlink:href="#ArialMT-31" transform="translate(0 0.201563)"/>
       <use xlink:href="#ArialMT-30" transform="translate(55.615234 0.201563)"/>
       <use xlink:href="#ArialMT-34" transform="translate(112.972813 69.895313)scale(0.7)"/>
      </g>
     </g>
    </g>
    <g id="ytick_5"/>
    <g id="ytick_6"/>
    <g id="ytick_7"/>
    <g id="ytick_8"/>
    <g id="ytick_9"/>
    <g id="ytick_10"/>
    <g id="ytick_11"/>
    <g id="ytick_12"/>
    <g id="ytick_13"/>
    <g id="ytick_14"/>
    <g id="ytick_15"/>
    <g id="ytick_16"/>
    <g id="ytick_17"/>
    <g id="ytick_18"/>
    <g id="ytick_19"/>
    <g id="ytick_20"/>
    <g id="ytick_21"/>
    <g id="ytick_22"/>
    <g id="ytick_23"/>
    <g id="ytick_24"/>
    <g id="ytick_25"/>
    <g id="ytick_26"/>
    <g id="ytick_27"/>
    <g id="ytick_28"/>
    <g id="ytick_29"/>
    <g id="ytick_30"/>
    <g id="ytick_31"/>
    <g id="ytick_32"/>
    <g id="ytick_33"/>
    <g id="ytick_34"/>
    <g id="ytick_35"/>
    <g id="ytick_36"/>
    <g id="ytick_37"/>
    <g id="ytick_38"/>
    <g id="ytick_39"/>
    <g id="ytick_40"/>
    <g id="ytick_41"/>
    <g id="ytick_42"/>
    <g id="text_26">
     <!-- # of products purchased in each age -->
     <g style="fill: #262626" transform="translate(101.704375 278.858437)rotate(-90)scale(0.12 -0.12)">
      <defs>
       <path id="ArialMT-23" d="M 322 -78 
L 594 1253 
L 66 1253 
L 66 1719 
L 688 1719 
L 919 2853 
L 66 2853 
L 66 3319 
L 1013 3319 
L 1284 4659 
L 1753 4659 
L 1481 3319 
L 2466 3319 
L 2738 4659 
L 3209 4659 
L 2938 3319 
L 3478 3319 
L 3478 2853 
L 2844 2853 
L 2609 1719 
L 3478 1719 
L 3478 1253 
L 2516 1253 
L 2244 -78 
L 1775 -78 
L 2044 1253 
L 1063 1253 
L 791 -78 
L 322 -78 
z
M 1156 1719 
L 2138 1719 
L 2372 2853 
L 1388 2853 
L 1156 1719 
z
" transform="scale(0.015625)"/>
       <path id="ArialMT-20" transform="scale(0.015625)"/>
       <path id="ArialMT-6f" d="M 213 1659 
Q 213 2581 725 3025 
Q 1153 3394 1769 3394 
Q 2453 3394 2887 2945 
Q 3322 2497 3322 1706 
Q 3322 1066 3130 698 
Q 2938 331 2570 128 
Q 2203 -75 1769 -75 
Q 1072 -75 642 372 
Q 213 819 213 1659 
z
M 791 1659 
Q 791 1022 1069 705 
Q 1347 388 1769 388 
Q 2188 388 2466 706 
Q 2744 1025 2744 1678 
Q 2744 2294 2464 2611 
Q 2184 2928 1769 2928 
Q 1347 2928 1069 2612 
Q 791 2297 791 1659 
z
" transform="scale(0.015625)"/>
       <path id="ArialMT-66" d="M 556 0 
L 556 2881 
L 59 2881 
L 59 3319 
L 556 3319 
L 556 3672 
Q 556 4006 616 4169 
Q 697 4388 901 4523 
Q 1106 4659 1475 4659 
Q 1713 4659 2000 4603 
L 1916 4113 
Q 1741 4144 1584 4144 
Q 1328 4144 1222 4034 
Q 1116 3925 1116 3625 
L 1116 3319 
L 1763 3319 
L 1763 2881 
L 1116 2881 
L 1116 0 
L 556 0 
z
" transform="scale(0.015625)"/>
       <path id="ArialMT-70" d="M 422 -1272 
L 422 3319 
L 934 3319 
L 934 2888 
Q 1116 3141 1344 3267 
Q 1572 3394 1897 3394 
Q 2322 3394 2647 3175 
Q 2972 2956 3137 2557 
Q 3303 2159 3303 1684 
Q 3303 1175 3120 767 
Q 2938 359 2589 142 
Q 2241 -75 1856 -75 
Q 1575 -75 1351 44 
Q 1128 163 984 344 
L 984 -1272 
L 422 -1272 
z
M 931 1641 
Q 931 1000 1190 694 
Q 1450 388 1819 388 
Q 2194 388 2461 705 
Q 2728 1022 2728 1688 
Q 2728 2322 2467 2637 
Q 2206 2953 1844 2953 
Q 1484 2953 1207 2617 
Q 931 2281 931 1641 
z
" transform="scale(0.015625)"/>
       <path id="ArialMT-72" d="M 416 0 
L 416 3319 
L 922 3319 
L 922 2816 
Q 1116 3169 1280 3281 
Q 1444 3394 1641 3394 
Q 1925 3394 2219 3213 
L 2025 2691 
Q 1819 2813 1613 2813 
Q 1428 2813 1281 2702 
Q 1134 2591 1072 2394 
Q 978 2094 978 1738 
L 978 0 
L 416 0 
z
" transform="scale(0.015625)"/>
       <path id="ArialMT-64" d="M 2575 0 
L 2575 419 
Q 2259 -75 1647 -75 
Q 1250 -75 917 144 
Q 584 363 401 755 
Q 219 1147 219 1656 
Q 219 2153 384 2558 
Q 550 2963 881 3178 
Q 1213 3394 1622 3394 
Q 1922 3394 2156 3267 
Q 2391 3141 2538 2938 
L 2538 4581 
L 3097 4581 
L 3097 0 
L 2575 0 
z
M 797 1656 
Q 797 1019 1065 703 
Q 1334 388 1700 388 
Q 2069 388 2326 689 
Q 2584 991 2584 1609 
Q 2584 2291 2321 2609 
Q 2059 2928 1675 2928 
Q 1300 2928 1048 2622 
Q 797 2316 797 1656 
z
" transform="scale(0.015625)"/>
       <path id="ArialMT-75" d="M 2597 0 
L 2597 488 
Q 2209 -75 1544 -75 
Q 1250 -75 995 37 
Q 741 150 617 320 
Q 494 491 444 738 
Q 409 903 409 1263 
L 409 3319 
L 972 3319 
L 972 1478 
Q 972 1038 1006 884 
Q 1059 663 1231 536 
Q 1403 409 1656 409 
Q 1909 409 2131 539 
Q 2353 669 2445 892 
Q 2538 1116 2538 1541 
L 2538 3319 
L 3100 3319 
L 3100 0 
L 2597 0 
z
" transform="scale(0.015625)"/>
       <path id="ArialMT-63" d="M 2588 1216 
L 3141 1144 
Q 3050 572 2676 248 
Q 2303 -75 1759 -75 
Q 1078 -75 664 370 
Q 250 816 250 1647 
Q 250 2184 428 2587 
Q 606 2991 970 3192 
Q 1334 3394 1763 3394 
Q 2303 3394 2647 3120 
Q 2991 2847 3088 2344 
L 2541 2259 
Q 2463 2594 2264 2762 
Q 2066 2931 1784 2931 
Q 1359 2931 1093 2626 
Q 828 2322 828 1663 
Q 828 994 1084 691 
Q 1341 388 1753 388 
Q 2084 388 2306 591 
Q 2528 794 2588 1216 
z
" transform="scale(0.015625)"/>
       <path id="ArialMT-74" d="M 1650 503 
L 1731 6 
Q 1494 -44 1306 -44 
Q 1000 -44 831 53 
Q 663 150 594 308 
Q 525 466 525 972 
L 525 2881 
L 113 2881 
L 113 3319 
L 525 3319 
L 525 4141 
L 1084 4478 
L 1084 3319 
L 1650 3319 
L 1650 2881 
L 1084 2881 
L 1084 941 
Q 1084 700 1114 631 
Q 1144 563 1211 522 
Q 1278 481 1403 481 
Q 1497 481 1650 503 
z
" transform="scale(0.015625)"/>
       <path id="ArialMT-68" d="M 422 0 
L 422 4581 
L 984 4581 
L 984 2938 
Q 1378 3394 1978 3394 
Q 2347 3394 2619 3248 
Q 2891 3103 3008 2847 
Q 3125 2591 3125 2103 
L 3125 0 
L 2563 0 
L 2563 2103 
Q 2563 2525 2380 2717 
Q 2197 2909 1863 2909 
Q 1613 2909 1392 2779 
Q 1172 2650 1078 2428 
Q 984 2206 984 1816 
L 984 0 
L 422 0 
z
" transform="scale(0.015625)"/>
       <path id="ArialMT-61" d="M 2588 409 
Q 2275 144 1986 34 
Q 1697 -75 1366 -75 
Q 819 -75 525 192 
Q 231 459 231 875 
Q 231 1119 342 1320 
Q 453 1522 633 1644 
Q 813 1766 1038 1828 
Q 1203 1872 1538 1913 
Q 2219 1994 2541 2106 
Q 2544 2222 2544 2253 
Q 2544 2597 2384 2738 
Q 2169 2928 1744 2928 
Q 1347 2928 1158 2789 
Q 969 2650 878 2297 
L 328 2372 
Q 403 2725 575 2942 
Q 747 3159 1072 3276 
Q 1397 3394 1825 3394 
Q 2250 3394 2515 3294 
Q 2781 3194 2906 3042 
Q 3031 2891 3081 2659 
Q 3109 2516 3109 2141 
L 3109 1391 
Q 3109 606 3145 398 
Q 3181 191 3288 0 
L 2700 0 
Q 2613 175 2588 409 
z
M 2541 1666 
Q 2234 1541 1622 1453 
Q 1275 1403 1131 1340 
Q 988 1278 909 1158 
Q 831 1038 831 891 
Q 831 666 1001 516 
Q 1172 366 1500 366 
Q 1825 366 2078 508 
Q 2331 650 2450 897 
Q 2541 1088 2541 1459 
L 2541 1666 
z
" transform="scale(0.015625)"/>
       <path id="ArialMT-69" d="M 425 3934 
L 425 4581 
L 988 4581 
L 988 3934 
L 425 3934 
z
M 425 0 
L 425 3319 
L 988 3319 
L 988 0 
L 425 0 
z
" transform="scale(0.015625)"/>
       <path id="ArialMT-6e" d="M 422 0 
L 422 3319 
L 928 3319 
L 928 2847 
Q 1294 3394 1984 3394 
Q 2284 3394 2536 3286 
Q 2788 3178 2913 3003 
Q 3038 2828 3088 2588 
Q 3119 2431 3119 2041 
L 3119 0 
L 2556 0 
L 2556 2019 
Q 2556 2363 2490 2533 
Q 2425 2703 2258 2804 
Q 2091 2906 1866 2906 
Q 1506 2906 1245 2678 
Q 984 2450 984 1813 
L 984 0 
L 422 0 
z
" transform="scale(0.015625)"/>
      </defs>
      <use xlink:href="#ArialMT-23"/>
      <use xlink:href="#ArialMT-20" x="55.615234"/>
      <use xlink:href="#ArialMT-6f" x="83.398438"/>
      <use xlink:href="#ArialMT-66" x="139.013672"/>
      <use xlink:href="#ArialMT-20" x="166.796875"/>
      <use xlink:href="#ArialMT-70" x="194.580078"/>
      <use xlink:href="#ArialMT-72" x="250.195312"/>
      <use xlink:href="#ArialMT-6f" x="283.496094"/>
      <use xlink:href="#ArialMT-64" x="339.111328"/>
      <use xlink:href="#ArialMT-75" x="394.726562"/>
      <use xlink:href="#ArialMT-63" x="450.341797"/>
      <use xlink:href="#ArialMT-74" x="500.341797"/>
      <use xlink:href="#ArialMT-73" x="528.125"/>
      <use xlink:href="#ArialMT-20" x="578.125"/>
      <use xlink:href="#ArialMT-70" x="605.908203"/>
      <use xlink:href="#ArialMT-75" x="661.523438"/>
      <use xlink:href="#ArialMT-72" x="717.138672"/>
      <use xlink:href="#ArialMT-63" x="750.439453"/>
      <use xlink:href="#ArialMT-68" x="800.439453"/>
      <use xlink:href="#ArialMT-61" x="856.054688"/>
      <use xlink:href="#ArialMT-73" x="911.669922"/>
      <use xlink:href="#ArialMT-65" x="961.669922"/>
      <use xlink:href="#ArialMT-64" x="1017.285156"/>
      <use xlink:href="#ArialMT-20" x="1072.900391"/>
      <use xlink:href="#ArialMT-69" x="1100.683594"/>
      <use xlink:href="#ArialMT-6e" x="1122.900391"/>
      <use xlink:href="#ArialMT-20" x="1178.515625"/>
      <use xlink:href="#ArialMT-65" x="1206.298828"/>
      <use xlink:href="#ArialMT-61" x="1261.914062"/>
      <use xlink:href="#ArialMT-63" x="1317.529297"/>
      <use xlink:href="#ArialMT-68" x="1367.529297"/>
      <use xlink:href="#ArialMT-20" x="1423.144531"/>
      <use xlink:href="#ArialMT-61" x="1450.927734"/>
      <use xlink:href="#ArialMT-67" x="1506.542969"/>
      <use xlink:href="#ArialMT-65" x="1562.158203"/>
     </g>
    </g>
   </g>
   <g id="patch_3">
    <path d="M 173.045455 63191.23325 
L 176.907937 63191.23325 
L 176.907937 133.350089 
L 173.045455 133.350089 
z
" clip-path="url(#p3439b8b87d)" style="fill: #4c72b0; stroke: #ffffff; stroke-linejoin: miter"/>
   </g>
   <g id="patch_4">
    <path d="M 211.670281 63191.23325 
L 215.532764 63191.23325 
L 215.532764 174.110432 
L 211.670281 174.110432 
z
" clip-path="url(#p3439b8b87d)" style="fill: #4c72b0; stroke: #ffffff; stroke-linejoin: miter"/>
   </g>
   <g id="patch_5">
    <path d="M 250.295108 63191.23325 
L 254.157591 63191.23325 
L 254.157591 163.215842 
L 250.295108 163.215842 
z
" clip-path="url(#p3439b8b87d)" style="fill: #4c72b0; stroke: #ffffff; stroke-linejoin: miter"/>
   </g>
   <g id="patch_6">
    <path d="M 288.919935 63191.23325 
L 292.782418 63191.23325 
L 292.782418 175.752089 
L 288.919935 175.752089 
z
" clip-path="url(#p3439b8b87d)" style="fill: #4c72b0; stroke: #ffffff; stroke-linejoin: miter"/>
   </g>
   <g id="patch_7">
    <path d="M 327.544762 63191.23325 
L 331.407245 63191.23325 
L 331.407245 128.197736 
L 327.544762 128.197736 
z
" clip-path="url(#p3439b8b87d)" style="fill: #4c72b0; stroke: #ffffff; stroke-linejoin: miter"/>
   </g>
   <g id="patch_8">
    <path d="M 366.169589 63191.23325 
L 370.032072 63191.23325 
L 370.032072 193.263843 
L 366.169589 193.263843 
z
" clip-path="url(#p3439b8b87d)" style="fill: #4c72b0; stroke: #ffffff; stroke-linejoin: miter"/>
   </g>
   <g id="patch_9">
    <path d="M 404.794416 63191.23325 
L 408.656899 63191.23325 
L 408.656899 248.350696 
L 404.794416 248.350696 
z
" clip-path="url(#p3439b8b87d)" style="fill: #4c72b0; stroke: #ffffff; stroke-linejoin: miter"/>
   </g>
   <g id="patch_10">
    <path d="M 443.419243 63191.23325 
L 447.281726 63191.23325 
L 447.281726 145.965079 
L 443.419243 145.965079 
z
" clip-path="url(#p3439b8b87d)" style="fill: #4c72b0; stroke: #ffffff; stroke-linejoin: miter"/>
   </g>
   <g id="patch_11">
    <path d="M 482.04407 63191.23325 
L 485.906553 63191.23325 
L 485.906553 281.034451 
L 482.04407 281.034451 
z
" clip-path="url(#p3439b8b87d)" style="fill: #4c72b0; stroke: #ffffff; stroke-linejoin: miter"/>
   </g>
   <g id="patch_12">
    <path d="M 520.668897 63191.23325 
L 524.53138 63191.23325 
L 524.53138 228.177849 
L 520.668897 228.177849 
z
" clip-path="url(#p3439b8b87d)" style="fill: #4c72b0; stroke: #ffffff; stroke-linejoin: miter"/>
   </g>
   <g id="patch_13">
    <path d="M 559.293724 63191.23325 
L 563.156207 63191.23325 
L 563.156207 176.407924 
L 559.293724 176.407924 
z
" clip-path="url(#p3439b8b87d)" style="fill: #4c72b0; stroke: #ffffff; stroke-linejoin: miter"/>
   </g>
   <g id="patch_14">
    <path d="M 597.918551 63191.23325 
L 601.781034 63191.23325 
L 601.781034 224.936402 
L 597.918551 224.936402 
z
" clip-path="url(#p3439b8b87d)" style="fill: #4c72b0; stroke: #ffffff; stroke-linejoin: miter"/>
   </g>
   <g id="patch_15">
    <path d="M 636.543378 63191.23325 
L 640.405861 63191.23325 
L 640.405861 227.933106 
L 636.543378 227.933106 
z
" clip-path="url(#p3439b8b87d)" style="fill: #4c72b0; stroke: #ffffff; stroke-linejoin: miter"/>
   </g>
   <g id="patch_16">
    <path d="M 675.168205 63191.23325 
L 679.030688 63191.23325 
L 679.030688 256.720964 
L 675.168205 256.720964 
z
" clip-path="url(#p3439b8b87d)" style="fill: #4c72b0; stroke: #ffffff; stroke-linejoin: miter"/>
   </g>
   <g id="patch_17">
    <path d="M 713.793032 63191.23325 
L 717.655515 63191.23325 
L 717.655515 218.199913 
L 713.793032 218.199913 
z
" clip-path="url(#p3439b8b87d)" style="fill: #4c72b0; stroke: #ffffff; stroke-linejoin: miter"/>
   </g>
   <g id="patch_18">
    <path d="M 752.417859 63191.23325 
L 756.280341 63191.23325 
L 756.280341 208.415601 
L 752.417859 208.415601 
z
" clip-path="url(#p3439b8b87d)" style="fill: #4c72b0; stroke: #ffffff; stroke-linejoin: miter"/>
   </g>
   <g id="patch_19">
    <path d="M 791.042686 63191.23325 
L 794.905168 63191.23325 
L 794.905168 307.8 
L 791.042686 307.8 
z
" clip-path="url(#p3439b8b87d)" style="fill: #4c72b0; stroke: #ffffff; stroke-linejoin: miter"/>
   </g>
   <g id="patch_20">
    <path d="M 829.667513 63191.23325 
L 833.529995 63191.23325 
L 833.529995 266.755693 
L 829.667513 266.755693 
z
" clip-path="url(#p3439b8b87d)" style="fill: #4c72b0; stroke: #ffffff; stroke-linejoin: miter"/>
   </g>
   <g id="patch_21">
    <path d="M 868.29234 63191.23325 
L 872.154822 63191.23325 
L 872.154822 245.424106 
L 868.29234 245.424106 
z
" clip-path="url(#p3439b8b87d)" style="fill: #4c72b0; stroke: #ffffff; stroke-linejoin: miter"/>
   </g>
   <g id="patch_22">
    <path d="M 906.917167 63191.23325 
L 910.779649 63191.23325 
L 910.779649 233.900849 
L 906.917167 233.900849 
z
" clip-path="url(#p3439b8b87d)" style="fill: #4c72b0; stroke: #ffffff; stroke-linejoin: miter"/>
   </g>
   <g id="patch_23">
    <path d="M 176.907937 63191.23325 
L 180.77042 63191.23325 
L 180.77042 78.290511 
L 176.907937 78.290511 
z
" clip-path="url(#p3439b8b87d)" style="fill: #dd8452; stroke: #ffffff; stroke-linejoin: miter"/>
   </g>
   <g id="patch_24">
    <path d="M 215.532764 63191.23325 
L 219.395247 63191.23325 
L 219.395247 127.587002 
L 215.532764 127.587002 
z
" clip-path="url(#p3439b8b87d)" style="fill: #dd8452; stroke: #ffffff; stroke-linejoin: miter"/>
   </g>
   <g id="patch_25">
    <path d="M 254.157591 63191.23325 
L 258.020074 63191.23325 
L 258.020074 125.902201 
L 254.157591 125.902201 
z
" clip-path="url(#p3439b8b87d)" style="fill: #dd8452; stroke: #ffffff; stroke-linejoin: miter"/>
   </g>
   <g id="patch_26">
    <path d="M 292.782418 63191.23325 
L 296.644901 63191.23325 
L 296.644901 143.593674 
L 292.782418 143.593674 
z
" clip-path="url(#p3439b8b87d)" style="fill: #dd8452; stroke: #ffffff; stroke-linejoin: miter"/>
   </g>
   <g id="patch_27">
    <path d="M 331.407245 63191.23325 
L 335.269728 63191.23325 
L 335.269728 76.755597 
L 331.407245 76.755597 
z
" clip-path="url(#p3439b8b87d)" style="fill: #dd8452; stroke: #ffffff; stroke-linejoin: miter"/>
   </g>
   <g id="patch_28">
    <path d="M 370.032072 63191.23325 
L 373.894555 63191.23325 
L 373.894555 132.129447 
L 370.032072 132.129447 
z
" clip-path="url(#p3439b8b87d)" style="fill: #dd8452; stroke: #ffffff; stroke-linejoin: miter"/>
   </g>
   <g id="patch_29">
    <path d="M 408.656899 63191.23325 
L 412.519382 63191.23325 
L 412.519382 188.163427 
L 408.656899 188.163427 
z
" clip-path="url(#p3439b8b87d)" style="fill: #dd8452; stroke: #ffffff; stroke-linejoin: miter"/>
   </g>
   <g id="patch_30">
    <path d="M 447.281726 63191.23325 
L 451.144209 63191.23325 
L 451.144209 89.451953 
L 447.281726 89.451953 
z
" clip-path="url(#p3439b8b87d)" style="fill: #dd8452; stroke: #ffffff; stroke-linejoin: miter"/>
   </g>
   <g id="patch_31">
    <path d="M 485.906553 63191.23325 
L 489.769036 63191.23325 
L 489.769036 243.634042 
L 485.906553 243.634042 
z
" clip-path="url(#p3439b8b87d)" style="fill: #dd8452; stroke: #ffffff; stroke-linejoin: miter"/>
   </g>
   <g id="patch_32">
    <path d="M 524.53138 63191.23325 
L 528.393862 63191.23325 
L 528.393862 181.99482 
L 524.53138 181.99482 
z
" clip-path="url(#p3439b8b87d)" style="fill: #dd8452; stroke: #ffffff; stroke-linejoin: miter"/>
   </g>
   <g id="patch_33">
    <path d="M 563.156207 63191.23325 
L 567.018689 63191.23325 
L 567.018689 126.56488 
L 563.156207 126.56488 
z
" clip-path="url(#p3439b8b87d)" style="fill: #dd8452; stroke: #ffffff; stroke-linejoin: miter"/>
   </g>
   <g id="patch_34">
    <path d="M 601.781034 63191.23325 
L 605.643516 63191.23325 
L 605.643516 190.656736 
L 601.781034 190.656736 
z
" clip-path="url(#p3439b8b87d)" style="fill: #dd8452; stroke: #ffffff; stroke-linejoin: miter"/>
   </g>
   <g id="patch_35">
    <path d="M 640.405861 63191.23325 
L 644.268343 63191.23325 
L 644.268343 175.824186 
L 640.405861 175.824186 
z
" clip-path="url(#p3439b8b87d)" style="fill: #dd8452; stroke: #ffffff; stroke-linejoin: miter"/>
   </g>
   <g id="patch_36">
    <path d="M 679.030688 63191.23325 
L 682.89317 63191.23325 
L 682.89317 208.296696 
L 679.030688 208.296696 
z
" clip-path="url(#p3439b8b87d)" style="fill: #dd8452; stroke: #ffffff; stroke-linejoin: miter"/>
   </g>
   <g id="patch_37">
    <path d="M 717.655515 63191.23325 
L 721.517997 63191.23325 
L 721.517997 167.543966 
L 717.655515 167.543966 
z
" clip-path="url(#p3439b8b87d)" style="fill: #dd8452; stroke: #ffffff; stroke-linejoin: miter"/>
   </g>
   <g id="patch_38">
    <path d="M 756.280341 63191.23325 
L 760.142824 63191.23325 
L 760.142824 155.399507 
L 756.280341 155.399507 
z
" clip-path="url(#p3439b8b87d)" style="fill: #dd8452; stroke: #ffffff; stroke-linejoin: miter"/>
   </g>
   <g id="patch_39">
    <path d="M 794.905168 63191.23325 
L 798.767651 63191.23325 
L 798.767651 255.356245 
L 794.905168 255.356245 
z
" clip-path="url(#p3439b8b87d)" style="fill: #dd8452; stroke: #ffffff; stroke-linejoin: miter"/>
   </g>
   <g id="patch_40">
    <path d="M 833.529995 63191.23325 
L 837.392478 63191.23325 
L 837.392478 197.710844 
L 833.529995 197.710844 
z
" clip-path="url(#p3439b8b87d)" style="fill: #dd8452; stroke: #ffffff; stroke-linejoin: miter"/>
   </g>
   <g id="patch_41">
    <path d="M 872.154822 63191.23325 
L 876.017305 63191.23325 
L 876.017305 203.420431 
L 872.154822 203.420431 
z
" clip-path="url(#p3439b8b87d)" style="fill: #dd8452; stroke: #ffffff; stroke-linejoin: miter"/>
   </g>
   <g id="patch_42">
    <path d="M 910.779649 63191.23325 
L 914.642132 63191.23325 
L 914.642132 188.852862 
L 910.779649 188.852862 
z
" clip-path="url(#p3439b8b87d)" style="fill: #dd8452; stroke: #ffffff; stroke-linejoin: miter"/>
   </g>
   <g id="patch_43">
    <path d="M 180.77042 63191.23325 
L 184.632903 63191.23325 
L 184.632903 57.270073 
L 180.77042 57.270073 
z
" clip-path="url(#p3439b8b87d)" style="fill: #55a868; stroke: #ffffff; stroke-linejoin: miter"/>
   </g>
   <g id="patch_44">
    <path d="M 219.395247 63191.23325 
L 223.25773 63191.23325 
L 223.25773 108.450959 
L 219.395247 108.450959 
z
" clip-path="url(#p3439b8b87d)" style="fill: #55a868; stroke: #ffffff; stroke-linejoin: miter"/>
   </g>
   <g id="patch_45">
    <path d="M 258.020074 63191.23325 
L 261.882557 63191.23325 
L 261.882557 112.623929 
L 258.020074 112.623929 
z
" clip-path="url(#p3439b8b87d)" style="fill: #55a868; stroke: #ffffff; stroke-linejoin: miter"/>
   </g>
   <g id="patch_46">
    <path d="M 296.644901 63191.23325 
L 300.507383 63191.23325 
L 300.507383 129.081606 
L 296.644901 129.081606 
z
" clip-path="url(#p3439b8b87d)" style="fill: #55a868; stroke: #ffffff; stroke-linejoin: miter"/>
   </g>
   <g id="patch_47">
    <path d="M 335.269728 63191.23325 
L 339.13221 63191.23325 
L 339.13221 55.8 
L 335.269728 55.8 
z
" clip-path="url(#p3439b8b87d)" style="fill: #55a868; stroke: #ffffff; stroke-linejoin: miter"/>
   </g>
   <g id="patch_48">
    <path d="M 373.894555 63191.23325 
L 377.757037 63191.23325 
L 377.757037 109.839749 
L 373.894555 109.839749 
z
" clip-path="url(#p3439b8b87d)" style="fill: #55a868; stroke: #ffffff; stroke-linejoin: miter"/>
   </g>
   <g id="patch_49">
    <path d="M 412.519382 63191.23325 
L 416.381864 63191.23325 
L 416.381864 154.509122 
L 412.519382 154.509122 
z
" clip-path="url(#p3439b8b87d)" style="fill: #55a868; stroke: #ffffff; stroke-linejoin: miter"/>
   </g>
   <g id="patch_50">
    <path d="M 451.144209 63191.23325 
L 455.006691 63191.23325 
L 455.006691 64.767258 
L 451.144209 64.767258 
z
" clip-path="url(#p3439b8b87d)" style="fill: #55a868; stroke: #ffffff; stroke-linejoin: miter"/>
   </g>
   <g id="patch_51">
    <path d="M 489.769036 63191.23325 
L 493.631518 63191.23325 
L 493.631518 219.24292 
L 489.769036 219.24292 
z
" clip-path="url(#p3439b8b87d)" style="fill: #55a868; stroke: #ffffff; stroke-linejoin: miter"/>
   </g>
   <g id="patch_52">
    <path d="M 528.393862 63191.23325 
L 532.256345 63191.23325 
L 532.256345 152.349029 
L 528.393862 152.349029 
z
" clip-path="url(#p3439b8b87d)" style="fill: #55a868; stroke: #ffffff; stroke-linejoin: miter"/>
   </g>
   <g id="patch_53">
    <path d="M 567.018689 63191.23325 
L 570.881172 63191.23325 
L 570.881172 105.702643 
L 567.018689 105.702643 
z
" clip-path="url(#p3439b8b87d)" style="fill: #55a868; stroke: #ffffff; stroke-linejoin: miter"/>
   </g>
   <g id="patch_54">
    <path d="M 605.643516 63191.23325 
L 609.505999 63191.23325 
L 609.505999 165.689681 
L 605.643516 165.689681 
z
" clip-path="url(#p3439b8b87d)" style="fill: #55a868; stroke: #ffffff; stroke-linejoin: miter"/>
   </g>
   <g id="patch_55">
    <path d="M 644.268343 63191.23325 
L 648.130826 63191.23325 
L 648.130826 147.996687 
L 644.268343 147.996687 
z
" clip-path="url(#p3439b8b87d)" style="fill: #55a868; stroke: #ffffff; stroke-linejoin: miter"/>
   </g>
   <g id="patch_56">
    <path d="M 682.89317 63191.23325 
L 686.755653 63191.23325 
L 686.755653 183.819422 
L 682.89317 183.819422 
z
" clip-path="url(#p3439b8b87d)" style="fill: #55a868; stroke: #ffffff; stroke-linejoin: miter"/>
   </g>
   <g id="patch_57">
    <path d="M 721.517997 63191.23325 
L 725.38048 63191.23325 
L 725.38048 144.621001 
L 721.517997 144.621001 
z
" clip-path="url(#p3439b8b87d)" style="fill: #55a868; stroke: #ffffff; stroke-linejoin: miter"/>
   </g>
   <g id="patch_58">
    <path d="M 760.142824 63191.23325 
L 764.005307 63191.23325 
L 764.005307 129.567627 
L 760.142824 129.567627 
z
" clip-path="url(#p3439b8b87d)" style="fill: #55a868; stroke: #ffffff; stroke-linejoin: miter"/>
   </g>
   <g id="patch_59">
    <path d="M 798.767651 63191.23325 
L 802.630134 63191.23325 
L 802.630134 224.503239 
L 798.767651 224.503239 
z
" clip-path="url(#p3439b8b87d)" style="fill: #55a868; stroke: #ffffff; stroke-linejoin: miter"/>
   </g>
   <g id="patch_60">
    <path d="M 837.392478 63191.23325 
L 841.254961 63191.23325 
L 841.254961 167.068449 
L 837.392478 167.068449 
z
" clip-path="url(#p3439b8b87d)" style="fill: #55a868; stroke: #ffffff; stroke-linejoin: miter"/>
   </g>
   <g id="patch_61">
    <path d="M 876.017305 63191.23325 
L 879.879788 63191.23325 
L 879.879788 183.867849 
L 876.017305 183.867849 
z
" clip-path="url(#p3439b8b87d)" style="fill: #55a868; stroke: #ffffff; stroke-linejoin: miter"/>
   </g>
   <g id="patch_62">
    <path d="M 914.642132 63191.23325 
L 918.504615 63191.23325 
L 918.504615 171.127019 
L 914.642132 171.127019 
z
" clip-path="url(#p3439b8b87d)" style="fill: #55a868; stroke: #ffffff; stroke-linejoin: miter"/>
   </g>
   <g id="patch_63">
    <path d="M 184.632903 63191.23325 
L 188.495385 63191.23325 
L 188.495385 77.604885 
L 184.632903 77.604885 
z
" clip-path="url(#p3439b8b87d)" style="fill: #c44e52; stroke: #ffffff; stroke-linejoin: miter"/>
   </g>
   <g id="patch_64">
    <path d="M 223.25773 63191.23325 
L 227.120212 63191.23325 
L 227.120212 124.756259 
L 223.25773 124.756259 
z
" clip-path="url(#p3439b8b87d)" style="fill: #c44e52; stroke: #ffffff; stroke-linejoin: miter"/>
   </g>
   <g id="patch_65">
    <path d="M 261.882557 63191.23325 
L 265.745039 63191.23325 
L 265.745039 131.375667 
L 261.882557 131.375667 
z
" clip-path="url(#p3439b8b87d)" style="fill: #c44e52; stroke: #ffffff; stroke-linejoin: miter"/>
   </g>
   <g id="patch_66">
    <path d="M 300.507383 63191.23325 
L 304.369866 63191.23325 
L 304.369866 144.828872 
L 300.507383 144.828872 
z
" clip-path="url(#p3439b8b87d)" style="fill: #c44e52; stroke: #ffffff; stroke-linejoin: miter"/>
   </g>
   <g id="patch_67">
    <path d="M 339.13221 63191.23325 
L 342.994693 63191.23325 
L 342.994693 75.949589 
L 339.13221 75.949589 
z
" clip-path="url(#p3439b8b87d)" style="fill: #c44e52; stroke: #ffffff; stroke-linejoin: miter"/>
   </g>
   <g id="patch_68">
    <path d="M 377.757037 63191.23325 
L 381.61952 63191.23325 
L 381.61952 131.058885 
L 377.757037 131.058885 
z
" clip-path="url(#p3439b8b87d)" style="fill: #c44e52; stroke: #ffffff; stroke-linejoin: miter"/>
   </g>
   <g id="patch_69">
    <path d="M 416.381864 63191.23325 
L 420.244347 63191.23325 
L 420.244347 173.975171 
L 416.381864 173.975171 
z
" clip-path="url(#p3439b8b87d)" style="fill: #c44e52; stroke: #ffffff; stroke-linejoin: miter"/>
   </g>
   <g id="patch_70">
    <path d="M 455.006691 63191.23325 
L 458.869174 63191.23325 
L 458.869174 82.278666 
L 455.006691 82.278666 
z
" clip-path="url(#p3439b8b87d)" style="fill: #c44e52; stroke: #ffffff; stroke-linejoin: miter"/>
   </g>
   <g id="patch_71">
    <path d="M 493.631518 63191.23325 
L 497.494001 63191.23325 
L 497.494001 229.179382 
L 493.631518 229.179382 
z
" clip-path="url(#p3439b8b87d)" style="fill: #c44e52; stroke: #ffffff; stroke-linejoin: miter"/>
   </g>
   <g id="patch_72">
    <path d="M 532.256345 63191.23325 
L 536.118828 63191.23325 
L 536.118828 162.431308 
L 532.256345 162.431308 
z
" clip-path="url(#p3439b8b87d)" style="fill: #c44e52; stroke: #ffffff; stroke-linejoin: miter"/>
   </g>
   <g id="patch_73">
    <path d="M 570.881172 63191.23325 
L 574.743655 63191.23325 
L 574.743655 124.529429 
L 570.881172 124.529429 
z
" clip-path="url(#p3439b8b87d)" style="fill: #c44e52; stroke: #ffffff; stroke-linejoin: miter"/>
   </g>
   <g id="patch_74">
    <path d="M 609.505999 63191.23325 
L 613.368482 63191.23325 
L 613.368482 168.355385 
L 609.505999 168.355385 
z
" clip-path="url(#p3439b8b87d)" style="fill: #c44e52; stroke: #ffffff; stroke-linejoin: miter"/>
   </g>
   <g id="patch_75">
    <path d="M 648.130826 63191.23325 
L 651.993309 63191.23325 
L 651.993309 162.101863 
L 648.130826 162.101863 
z
" clip-path="url(#p3439b8b87d)" style="fill: #c44e52; stroke: #ffffff; stroke-linejoin: miter"/>
   </g>
   <g id="patch_76">
    <path d="M 686.755653 63191.23325 
L 690.618136 63191.23325 
L 690.618136 199.975722 
L 686.755653 199.975722 
z
" clip-path="url(#p3439b8b87d)" style="fill: #c44e52; stroke: #ffffff; stroke-linejoin: miter"/>
   </g>
   <g id="patch_77">
    <path d="M 725.38048 63191.23325 
L 729.242963 63191.23325 
L 729.242963 159.106906 
L 725.38048 159.106906 
z
" clip-path="url(#p3439b8b87d)" style="fill: #c44e52; stroke: #ffffff; stroke-linejoin: miter"/>
   </g>
   <g id="patch_78">
    <path d="M 764.005307 63191.23325 
L 767.86779 63191.23325 
L 767.86779 149.897087 
L 764.005307 149.897087 
z
" clip-path="url(#p3439b8b87d)" style="fill: #c44e52; stroke: #ffffff; stroke-linejoin: miter"/>
   </g>
   <g id="patch_79">
    <path d="M 802.630134 63191.23325 
L 806.492617 63191.23325 
L 806.492617 222.836236 
L 802.630134 222.836236 
z
" clip-path="url(#p3439b8b87d)" style="fill: #c44e52; stroke: #ffffff; stroke-linejoin: miter"/>
   </g>
   <g id="patch_80">
    <path d="M 841.254961 63191.23325 
L 845.117443 63191.23325 
L 845.117443 177.846496 
L 841.254961 177.846496 
z
" clip-path="url(#p3439b8b87d)" style="fill: #c44e52; stroke: #ffffff; stroke-linejoin: miter"/>
   </g>
   <g id="patch_81">
    <path d="M 879.879788 63191.23325 
L 883.74227 63191.23325 
L 883.74227 199.284832 
L 879.879788 199.284832 
z
" clip-path="url(#p3439b8b87d)" style="fill: #c44e52; stroke: #ffffff; stroke-linejoin: miter"/>
   </g>
   <g id="patch_82">
    <path d="M 918.504615 63191.23325 
L 922.367097 63191.23325 
L 922.367097 186.780725 
L 918.504615 186.780725 
z
" clip-path="url(#p3439b8b87d)" style="fill: #c44e52; stroke: #ffffff; stroke-linejoin: miter"/>
   </g>
   <g id="patch_83">
    <path d="M 188.495385 63191.23325 
L 192.357868 63191.23325 
L 192.357868 104.092857 
L 188.495385 104.092857 
z
" clip-path="url(#p3439b8b87d)" style="fill: #8172b3; stroke: #ffffff; stroke-linejoin: miter"/>
   </g>
   <g id="patch_84">
    <path d="M 227.120212 63191.23325 
L 230.982695 63191.23325 
L 230.982695 147.879763 
L 227.120212 147.879763 
z
" clip-path="url(#p3439b8b87d)" style="fill: #8172b3; stroke: #ffffff; stroke-linejoin: miter"/>
   </g>
   <g id="patch_85">
    <path d="M 265.745039 63191.23325 
L 269.607522 63191.23325 
L 269.607522 159.481134 
L 265.745039 159.481134 
z
" clip-path="url(#p3439b8b87d)" style="fill: #8172b3; stroke: #ffffff; stroke-linejoin: miter"/>
   </g>
   <g id="patch_86">
    <path d="M 304.369866 63191.23325 
L 308.232349 63191.23325 
L 308.232349 168.46542 
L 304.369866 168.46542 
z
" clip-path="url(#p3439b8b87d)" style="fill: #8172b3; stroke: #ffffff; stroke-linejoin: miter"/>
   </g>
   <g id="patch_87">
    <path d="M 342.994693 63191.23325 
L 346.857176 63191.23325 
L 346.857176 100.447331 
L 342.994693 100.447331 
z
" clip-path="url(#p3439b8b87d)" style="fill: #8172b3; stroke: #ffffff; stroke-linejoin: miter"/>
   </g>
   <g id="patch_88">
    <path d="M 381.61952 63191.23325 
L 385.482003 63191.23325 
L 385.482003 154.992711 
L 381.61952 154.992711 
z
" clip-path="url(#p3439b8b87d)" style="fill: #8172b3; stroke: #ffffff; stroke-linejoin: miter"/>
   </g>
   <g id="patch_89">
    <path d="M 420.244347 63191.23325 
L 424.10683 63191.23325 
L 424.10683 198.694327 
L 420.244347 198.694327 
z
" clip-path="url(#p3439b8b87d)" style="fill: #8172b3; stroke: #ffffff; stroke-linejoin: miter"/>
   </g>
   <g id="patch_90">
    <path d="M 458.869174 63191.23325 
L 462.731657 63191.23325 
L 462.731657 103.622751 
L 458.869174 103.622751 
z
" clip-path="url(#p3439b8b87d)" style="fill: #8172b3; stroke: #ffffff; stroke-linejoin: miter"/>
   </g>
   <g id="patch_91">
    <path d="M 497.494001 63191.23325 
L 501.356484 63191.23325 
L 501.356484 261.279652 
L 497.494001 261.279652 
z
" clip-path="url(#p3439b8b87d)" style="fill: #8172b3; stroke: #ffffff; stroke-linejoin: miter"/>
   </g>
   <g id="patch_92">
    <path d="M 536.118828 63191.23325 
L 539.981311 63191.23325 
L 539.981311 186.035958 
L 536.118828 186.035958 
z
" clip-path="url(#p3439b8b87d)" style="fill: #8172b3; stroke: #ffffff; stroke-linejoin: miter"/>
   </g>
   <g id="patch_93">
    <path d="M 574.743655 63191.23325 
L 578.606138 63191.23325 
L 578.606138 147.89273 
L 574.743655 147.89273 
z
" clip-path="url(#p3439b8b87d)" style="fill: #8172b3; stroke: #ffffff; stroke-linejoin: miter"/>
   </g>
   <g id="patch_94">
    <path d="M 613.368482 63191.23325 
L 617.230964 63191.23325 
L 617.230964 186.035958 
L 613.368482 186.035958 
z
" clip-path="url(#p3439b8b87d)" style="fill: #8172b3; stroke: #ffffff; stroke-linejoin: miter"/>
   </g>
   <g id="patch_95">
    <path d="M 651.993309 63191.23325 
L 655.855791 63191.23325 
L 655.855791 184.455779 
L 651.993309 184.455779 
z
" clip-path="url(#p3439b8b87d)" style="fill: #8172b3; stroke: #ffffff; stroke-linejoin: miter"/>
   </g>
   <g id="patch_96">
    <path d="M 690.618136 63191.23325 
L 694.480618 63191.23325 
L 694.480618 220.143618 
L 690.618136 220.143618 
z
" clip-path="url(#p3439b8b87d)" style="fill: #8172b3; stroke: #ffffff; stroke-linejoin: miter"/>
   </g>
   <g id="patch_97">
    <path d="M 729.242963 63191.23325 
L 733.105445 63191.23325 
L 733.105445 182.040112 
L 729.242963 182.040112 
z
" clip-path="url(#p3439b8b87d)" style="fill: #8172b3; stroke: #ffffff; stroke-linejoin: miter"/>
   </g>
   <g id="patch_98">
    <path d="M 767.86779 63191.23325 
L 771.730272 63191.23325 
L 771.730272 171.710592 
L 767.86779 171.710592 
z
" clip-path="url(#p3439b8b87d)" style="fill: #8172b3; stroke: #ffffff; stroke-linejoin: miter"/>
   </g>
   <g id="patch_99">
    <path d="M 806.492617 63191.23325 
L 810.355099 63191.23325 
L 810.355099 232.425425 
L 806.492617 232.425425 
z
" clip-path="url(#p3439b8b87d)" style="fill: #8172b3; stroke: #ffffff; stroke-linejoin: miter"/>
   </g>
   <g id="patch_100">
    <path d="M 845.117443 63191.23325 
L 848.979926 63191.23325 
L 848.979926 196.761577 
L 845.117443 196.761577 
z
" clip-path="url(#p3439b8b87d)" style="fill: #8172b3; stroke: #ffffff; stroke-linejoin: miter"/>
   </g>
   <g id="patch_101">
    <path d="M 883.74227 63191.23325 
L 887.604753 63191.23325 
L 887.604753 220.143618 
L 883.74227 220.143618 
z
" clip-path="url(#p3439b8b87d)" style="fill: #8172b3; stroke: #ffffff; stroke-linejoin: miter"/>
   </g>
   <g id="patch_102">
    <path d="M 922.367097 63191.23325 
L 926.22958 63191.23325 
L 926.22958 208.654977 
L 922.367097 208.654977 
z
" clip-path="url(#p3439b8b87d)" style="fill: #8172b3; stroke: #ffffff; stroke-linejoin: miter"/>
   </g>
   <g id="patch_103">
    <path d="M 192.357868 63191.23325 
L 196.220351 63191.23325 
L 196.220351 108.083603 
L 192.357868 108.083603 
z
" clip-path="url(#p3439b8b87d)" style="fill: #937860; stroke: #ffffff; stroke-linejoin: miter"/>
   </g>
   <g id="patch_104">
    <path d="M 230.982695 63191.23325 
L 234.845178 63191.23325 
L 234.845178 152.440808 
L 230.982695 152.440808 
z
" clip-path="url(#p3439b8b87d)" style="fill: #937860; stroke: #ffffff; stroke-linejoin: miter"/>
   </g>
   <g id="patch_105">
    <path d="M 269.607522 63191.23325 
L 273.470005 63191.23325 
L 273.470005 170.348145 
L 269.607522 170.348145 
z
" clip-path="url(#p3439b8b87d)" style="fill: #937860; stroke: #ffffff; stroke-linejoin: miter"/>
   </g>
   <g id="patch_106">
    <path d="M 308.232349 63191.23325 
L 312.094832 63191.23325 
L 312.094832 178.795764 
L 308.232349 178.795764 
z
" clip-path="url(#p3439b8b87d)" style="fill: #937860; stroke: #ffffff; stroke-linejoin: miter"/>
   </g>
   <g id="patch_107">
    <path d="M 346.857176 63191.23325 
L 350.719659 63191.23325 
L 350.719659 105.650183 
L 346.857176 105.650183 
z
" clip-path="url(#p3439b8b87d)" style="fill: #937860; stroke: #ffffff; stroke-linejoin: miter"/>
   </g>
   <g id="patch_108">
    <path d="M 385.482003 63191.23325 
L 389.344485 63191.23325 
L 389.344485 158.051675 
L 385.482003 158.051675 
z
" clip-path="url(#p3439b8b87d)" style="fill: #937860; stroke: #ffffff; stroke-linejoin: miter"/>
   </g>
   <g id="patch_109">
    <path d="M 424.10683 63191.23325 
L 427.969312 63191.23325 
L 427.969312 204.328456 
L 424.10683 204.328456 
z
" clip-path="url(#p3439b8b87d)" style="fill: #937860; stroke: #ffffff; stroke-linejoin: miter"/>
   </g>
   <g id="patch_110">
    <path d="M 462.731657 63191.23325 
L 466.594139 63191.23325 
L 466.594139 107.219861 
L 462.731657 107.219861 
z
" clip-path="url(#p3439b8b87d)" style="fill: #937860; stroke: #ffffff; stroke-linejoin: miter"/>
   </g>
   <g id="patch_111">
    <path d="M 501.356484 63191.23325 
L 505.218966 63191.23325 
L 505.218966 264.805671 
L 501.356484 264.805671 
z
" clip-path="url(#p3439b8b87d)" style="fill: #937860; stroke: #ffffff; stroke-linejoin: miter"/>
   </g>
   <g id="patch_112">
    <path d="M 539.981311 63191.23325 
L 543.843793 63191.23325 
L 543.843793 186.088487 
L 539.981311 186.088487 
z
" clip-path="url(#p3439b8b87d)" style="fill: #937860; stroke: #ffffff; stroke-linejoin: miter"/>
   </g>
   <g id="patch_113">
    <path d="M 578.606138 63191.23325 
L 582.46862 63191.23325 
L 582.46862 157.901531 
L 578.606138 157.901531 
z
" clip-path="url(#p3439b8b87d)" style="fill: #937860; stroke: #ffffff; stroke-linejoin: miter"/>
   </g>
   <g id="patch_114">
    <path d="M 617.230964 63191.23325 
L 621.093447 63191.23325 
L 621.093447 191.032275 
L 617.230964 191.032275 
z
" clip-path="url(#p3439b8b87d)" style="fill: #937860; stroke: #ffffff; stroke-linejoin: miter"/>
   </g>
   <g id="patch_115">
    <path d="M 655.855791 63191.23325 
L 659.718274 63191.23325 
L 659.718274 188.050195 
L 655.855791 188.050195 
z
" clip-path="url(#p3439b8b87d)" style="fill: #937860; stroke: #ffffff; stroke-linejoin: miter"/>
   </g>
   <g id="patch_116">
    <path d="M 694.480618 63191.23325 
L 698.343101 63191.23325 
L 698.343101 219.24292 
L 694.480618 219.24292 
z
" clip-path="url(#p3439b8b87d)" style="fill: #937860; stroke: #ffffff; stroke-linejoin: miter"/>
   </g>
   <g id="patch_117">
    <path d="M 733.105445 63191.23325 
L 736.967928 63191.23325 
L 736.967928 186.673077 
L 733.105445 186.673077 
z
" clip-path="url(#p3439b8b87d)" style="fill: #937860; stroke: #ffffff; stroke-linejoin: miter"/>
   </g>
   <g id="patch_118">
    <path d="M 771.730272 63191.23325 
L 775.592755 63191.23325 
L 775.592755 179.038331 
L 771.730272 179.038331 
z
" clip-path="url(#p3439b8b87d)" style="fill: #937860; stroke: #ffffff; stroke-linejoin: miter"/>
   </g>
   <g id="patch_119">
    <path d="M 810.355099 63191.23325 
L 814.217582 63191.23325 
L 814.217582 229.179382 
L 810.355099 229.179382 
z
" clip-path="url(#p3439b8b87d)" style="fill: #937860; stroke: #ffffff; stroke-linejoin: miter"/>
   </g>
   <g id="patch_120">
    <path d="M 848.979926 63191.23325 
L 852.842409 63191.23325 
L 852.842409 191.66989 
L 848.979926 191.66989 
z
" clip-path="url(#p3439b8b87d)" style="fill: #937860; stroke: #ffffff; stroke-linejoin: miter"/>
   </g>
   <g id="patch_121">
    <path d="M 887.604753 63191.23325 
L 891.467236 63191.23325 
L 891.467236 223.039126 
L 887.604753 223.039126 
z
" clip-path="url(#p3439b8b87d)" style="fill: #937860; stroke: #ffffff; stroke-linejoin: miter"/>
   </g>
   <g id="patch_122">
    <path d="M 926.22958 63191.23325 
L 930.092063 63191.23325 
L 930.092063 212.110617 
L 926.22958 212.110617 
z
" clip-path="url(#p3439b8b87d)" style="fill: #937860; stroke: #ffffff; stroke-linejoin: miter"/>
   </g>
   <g id="patch_123">
    <path d="M 196.220351 63191.23325 
L 200.082833 63191.23325 
L 200.082833 127.691971 
L 196.220351 127.691971 
z
" clip-path="url(#p3439b8b87d)" style="fill: #da8bc3; stroke: #ffffff; stroke-linejoin: miter"/>
   </g>
   <g id="patch_124">
    <path d="M 234.845178 63191.23325 
L 238.70766 63191.23325 
L 238.70766 170.915126 
L 234.845178 170.915126 
z
" clip-path="url(#p3439b8b87d)" style="fill: #da8bc3; stroke: #ffffff; stroke-linejoin: miter"/>
   </g>
   <g id="patch_125">
    <path d="M 273.470005 63191.23325 
L 277.332487 63191.23325 
L 277.332487 187.825133 
L 273.470005 187.825133 
z
" clip-path="url(#p3439b8b87d)" style="fill: #da8bc3; stroke: #ffffff; stroke-linejoin: miter"/>
   </g>
   <g id="patch_126">
    <path d="M 312.094832 63191.23325 
L 315.957314 63191.23325 
L 315.957314 199.455922 
L 312.094832 199.455922 
z
" clip-path="url(#p3439b8b87d)" style="fill: #da8bc3; stroke: #ffffff; stroke-linejoin: miter"/>
   </g>
   <g id="patch_127">
    <path d="M 350.719659 63191.23325 
L 354.582141 63191.23325 
L 354.582141 122.338811 
L 350.719659 122.338811 
z
" clip-path="url(#p3439b8b87d)" style="fill: #da8bc3; stroke: #ffffff; stroke-linejoin: miter"/>
   </g>
   <g id="patch_128">
    <path d="M 389.344485 63191.23325 
L 393.206968 63191.23325 
L 393.206968 172.24353 
L 389.344485 172.24353 
z
" clip-path="url(#p3439b8b87d)" style="fill: #da8bc3; stroke: #ffffff; stroke-linejoin: miter"/>
   </g>
   <g id="patch_129">
    <path d="M 427.969312 63191.23325 
L 431.831795 63191.23325 
L 431.831795 223.039126 
L 427.969312 223.039126 
z
" clip-path="url(#p3439b8b87d)" style="fill: #da8bc3; stroke: #ffffff; stroke-linejoin: miter"/>
   </g>
   <g id="patch_130">
    <path d="M 466.594139 63191.23325 
L 470.456622 63191.23325 
L 470.456622 118.366405 
L 466.594139 118.366405 
z
" clip-path="url(#p3439b8b87d)" style="fill: #da8bc3; stroke: #ffffff; stroke-linejoin: miter"/>
   </g>
   <g id="patch_131">
    <path d="M 505.218966 63191.23325 
L 509.081449 63191.23325 
L 509.081449 299.949532 
L 505.218966 299.949532 
z
" clip-path="url(#p3439b8b87d)" style="fill: #da8bc3; stroke: #ffffff; stroke-linejoin: miter"/>
   </g>
   <g id="patch_132">
    <path d="M 543.843793 63191.23325 
L 547.706276 63191.23325 
L 547.706276 196.839433 
L 543.843793 196.839433 
z
" clip-path="url(#p3439b8b87d)" style="fill: #da8bc3; stroke: #ffffff; stroke-linejoin: miter"/>
   </g>
   <g id="patch_133">
    <path d="M 582.46862 63191.23325 
L 586.331103 63191.23325 
L 586.331103 183.964962 
L 582.46862 183.964962 
z
" clip-path="url(#p3439b8b87d)" style="fill: #da8bc3; stroke: #ffffff; stroke-linejoin: miter"/>
   </g>
   <g id="patch_134">
    <path d="M 621.093447 63191.23325 
L 624.95593 63191.23325 
L 624.95593 197.630465 
L 621.093447 197.630465 
z
" clip-path="url(#p3439b8b87d)" style="fill: #da8bc3; stroke: #ffffff; stroke-linejoin: miter"/>
   </g>
   <g id="patch_135">
    <path d="M 659.718274 63191.23325 
L 663.580757 63191.23325 
L 663.580757 200.955193 
L 659.718274 200.955193 
z
" clip-path="url(#p3439b8b87d)" style="fill: #da8bc3; stroke: #ffffff; stroke-linejoin: miter"/>
   </g>
   <g id="patch_136">
    <path d="M 698.343101 63191.23325 
L 702.205584 63191.23325 
L 702.205584 238.876166 
L 698.343101 238.876166 
z
" clip-path="url(#p3439b8b87d)" style="fill: #da8bc3; stroke: #ffffff; stroke-linejoin: miter"/>
   </g>
   <g id="patch_137">
    <path d="M 736.967928 63191.23325 
L 740.830411 63191.23325 
L 740.830411 208.415601 
L 736.967928 208.415601 
z
" clip-path="url(#p3439b8b87d)" style="fill: #da8bc3; stroke: #ffffff; stroke-linejoin: miter"/>
   </g>
   <g id="patch_138">
    <path d="M 775.592755 63191.23325 
L 779.455238 63191.23325 
L 779.455238 194.811555 
L 775.592755 194.811555 
z
" clip-path="url(#p3439b8b87d)" style="fill: #da8bc3; stroke: #ffffff; stroke-linejoin: miter"/>
   </g>
   <g id="patch_139">
    <path d="M 814.217582 63191.23325 
L 818.080065 63191.23325 
L 818.080065 241.954207 
L 814.217582 241.954207 
z
" clip-path="url(#p3439b8b87d)" style="fill: #da8bc3; stroke: #ffffff; stroke-linejoin: miter"/>
   </g>
   <g id="patch_140">
    <path d="M 852.842409 63191.23325 
L 856.704892 63191.23325 
L 856.704892 207.021833 
L 852.842409 207.021833 
z
" clip-path="url(#p3439b8b87d)" style="fill: #da8bc3; stroke: #ffffff; stroke-linejoin: miter"/>
   </g>
   <g id="patch_141">
    <path d="M 891.467236 63191.23325 
L 895.329719 63191.23325 
L 895.329719 230.219077 
L 891.467236 230.219077 
z
" clip-path="url(#p3439b8b87d)" style="fill: #da8bc3; stroke: #ffffff; stroke-linejoin: miter"/>
   </g>
   <g id="patch_142">
    <path d="M 930.092063 63191.23325 
L 933.954545 63191.23325 
L 933.954545 218.199913 
L 930.092063 218.199913 
z
" clip-path="url(#p3439b8b87d)" style="fill: #da8bc3; stroke: #ffffff; stroke-linejoin: miter"/>
   </g>
   <g id="patch_143">
    <path d="M 135 320.4 
L 135 43.2 
" style="fill: none; stroke: #ffffff; stroke-width: 1.25; stroke-linejoin: miter; stroke-linecap: square"/>
   </g>
   <g id="patch_144">
    <path d="M 972 320.4 
L 972 43.2 
" style="fill: none; stroke: #ffffff; stroke-width: 1.25; stroke-linejoin: miter; stroke-linecap: square"/>
   </g>
   <g id="patch_145">
    <path d="M 135 320.4 
L 972 320.4 
" style="fill: none; stroke: #ffffff; stroke-width: 1.25; stroke-linejoin: miter; stroke-linecap: square"/>
   </g>
   <g id="patch_146">
    <path d="M 135 43.2 
L 972 43.2 
" style="fill: none; stroke: #ffffff; stroke-width: 1.25; stroke-linejoin: miter; stroke-linecap: square"/>
   </g>
   <g id="text_27">
    <!-- Age groups product purchases per category -->
    <g style="fill: #262626" transform="translate(436.772812 37.2)scale(0.12 -0.12)">
     <defs>
      <path id="ArialMT-79" d="M 397 -1278 
L 334 -750 
Q 519 -800 656 -800 
Q 844 -800 956 -737 
Q 1069 -675 1141 -563 
Q 1194 -478 1313 -144 
Q 1328 -97 1363 -6 
L 103 3319 
L 709 3319 
L 1400 1397 
Q 1534 1031 1641 628 
Q 1738 1016 1872 1384 
L 2581 3319 
L 3144 3319 
L 1881 -56 
Q 1678 -603 1566 -809 
Q 1416 -1088 1222 -1217 
Q 1028 -1347 759 -1347 
Q 597 -1347 397 -1278 
z
" transform="scale(0.015625)"/>
     </defs>
     <use xlink:href="#ArialMT-41"/>
     <use xlink:href="#ArialMT-67" x="66.699219"/>
     <use xlink:href="#ArialMT-65" x="122.314453"/>
     <use xlink:href="#ArialMT-20" x="177.929688"/>
     <use xlink:href="#ArialMT-67" x="205.712891"/>
     <use xlink:href="#ArialMT-72" x="261.328125"/>
     <use xlink:href="#ArialMT-6f" x="294.628906"/>
     <use xlink:href="#ArialMT-75" x="350.244141"/>
     <use xlink:href="#ArialMT-70" x="405.859375"/>
     <use xlink:href="#ArialMT-73" x="461.474609"/>
     <use xlink:href="#ArialMT-20" x="511.474609"/>
     <use xlink:href="#ArialMT-70" x="539.257812"/>
     <use xlink:href="#ArialMT-72" x="594.873047"/>
     <use xlink:href="#ArialMT-6f" x="628.173828"/>
     <use xlink:href="#ArialMT-64" x="683.789062"/>
     <use xlink:href="#ArialMT-75" x="739.404297"/>
     <use xlink:href="#ArialMT-63" x="795.019531"/>
     <use xlink:href="#ArialMT-74" x="845.019531"/>
     <use xlink:href="#ArialMT-20" x="872.802734"/>
     <use xlink:href="#ArialMT-70" x="900.585938"/>
     <use xlink:href="#ArialMT-75" x="956.201172"/>
     <use xlink:href="#ArialMT-72" x="1011.816406"/>
     <use xlink:href="#ArialMT-63" x="1045.117188"/>
     <use xlink:href="#ArialMT-68" x="1095.117188"/>
     <use xlink:href="#ArialMT-61" x="1150.732422"/>
     <use xlink:href="#ArialMT-73" x="1206.347656"/>
     <use xlink:href="#ArialMT-65" x="1256.347656"/>
     <use xlink:href="#ArialMT-73" x="1311.962891"/>
     <use xlink:href="#ArialMT-20" x="1361.962891"/>
     <use xlink:href="#ArialMT-70" x="1389.746094"/>
     <use xlink:href="#ArialMT-65" x="1445.361328"/>
     <use xlink:href="#ArialMT-72" x="1500.976562"/>
     <use xlink:href="#ArialMT-20" x="1534.277344"/>
     <use xlink:href="#ArialMT-63" x="1562.060547"/>
     <use xlink:href="#ArialMT-61" x="1612.060547"/>
     <use xlink:href="#ArialMT-74" x="1667.675781"/>
     <use xlink:href="#ArialMT-65" x="1695.458984"/>
     <use xlink:href="#ArialMT-67" x="1751.074219"/>
     <use xlink:href="#ArialMT-6f" x="1806.689453"/>
     <use xlink:href="#ArialMT-72" x="1862.304688"/>
     <use xlink:href="#ArialMT-79" x="1895.605469"/>
    </g>
   </g>
   <g id="legend_1">
    <g id="patch_147">
     <path d="M 900.969219 160.918906 
L 964.3 160.918906 
Q 966.5 160.918906 966.5 158.718906 
L 966.5 50.9 
Q 966.5 48.7 964.3 48.7 
L 900.969219 48.7 
Q 898.769219 48.7 898.769219 50.9 
L 898.769219 158.718906 
Q 898.769219 160.918906 900.969219 160.918906 
z
" style="fill: #eaeaf2; opacity: 0.8; stroke: #cccccc; stroke-linejoin: miter"/>
    </g>
    <g id="patch_148">
     <path d="M 903.169219 60.973594 
L 925.169219 60.973594 
L 925.169219 53.273594 
L 903.169219 53.273594 
z
" style="fill: #4c72b0; stroke: #ffffff; stroke-linejoin: miter"/>
    </g>
    <g id="text_28">
     <!-- 0-17 -->
     <g style="fill: #262626" transform="translate(933.969219 60.973594)scale(0.11 -0.11)">
      <defs>
       <path id="ArialMT-2d" d="M 203 1375 
L 203 1941 
L 1931 1941 
L 1931 1375 
L 203 1375 
z
" transform="scale(0.015625)"/>
      </defs>
      <use xlink:href="#ArialMT-30"/>
      <use xlink:href="#ArialMT-2d" x="55.615234"/>
      <use xlink:href="#ArialMT-31" x="88.916016"/>
      <use xlink:href="#ArialMT-37" x="144.53125"/>
     </g>
    </g>
    <g id="patch_149">
     <path d="M 903.169219 76.533437 
L 925.169219 76.533437 
L 925.169219 68.833437 
L 903.169219 68.833437 
z
" style="fill: #dd8452; stroke: #ffffff; stroke-linejoin: miter"/>
    </g>
    <g id="text_29">
     <!-- 18-25 -->
     <g style="fill: #262626" transform="translate(933.969219 76.533437)scale(0.11 -0.11)">
      <use xlink:href="#ArialMT-31"/>
      <use xlink:href="#ArialMT-38" x="55.615234"/>
      <use xlink:href="#ArialMT-2d" x="111.230469"/>
      <use xlink:href="#ArialMT-32" x="144.53125"/>
      <use xlink:href="#ArialMT-35" x="200.146484"/>
     </g>
    </g>
    <g id="patch_150">
     <path d="M 903.169219 92.093281 
L 925.169219 92.093281 
L 925.169219 84.393281 
L 903.169219 84.393281 
z
" style="fill: #55a868; stroke: #ffffff; stroke-linejoin: miter"/>
    </g>
    <g id="text_30">
     <!-- 26-35 -->
     <g style="fill: #262626" transform="translate(933.969219 92.093281)scale(0.11 -0.11)">
      <use xlink:href="#ArialMT-32"/>
      <use xlink:href="#ArialMT-36" x="55.615234"/>
      <use xlink:href="#ArialMT-2d" x="111.230469"/>
      <use xlink:href="#ArialMT-33" x="144.53125"/>
      <use xlink:href="#ArialMT-35" x="200.146484"/>
     </g>
    </g>
    <g id="patch_151">
     <path d="M 903.169219 107.653125 
L 925.169219 107.653125 
L 925.169219 99.953125 
L 903.169219 99.953125 
z
" style="fill: #c44e52; stroke: #ffffff; stroke-linejoin: miter"/>
    </g>
    <g id="text_31">
     <!-- 36-45 -->
     <g style="fill: #262626" transform="translate(933.969219 107.653125)scale(0.11 -0.11)">
      <use xlink:href="#ArialMT-33"/>
      <use xlink:href="#ArialMT-36" x="55.615234"/>
      <use xlink:href="#ArialMT-2d" x="111.230469"/>
      <use xlink:href="#ArialMT-34" x="144.53125"/>
      <use xlink:href="#ArialMT-35" x="200.146484"/>
     </g>
    </g>
    <g id="patch_152">
     <path d="M 903.169219 123.212969 
L 925.169219 123.212969 
L 925.169219 115.512969 
L 903.169219 115.512969 
z
" style="fill: #8172b3; stroke: #ffffff; stroke-linejoin: miter"/>
    </g>
    <g id="text_32">
     <!-- 46-50 -->
     <g style="fill: #262626" transform="translate(933.969219 123.212969)scale(0.11 -0.11)">
      <use xlink:href="#ArialMT-34"/>
      <use xlink:href="#ArialMT-36" x="55.615234"/>
      <use xlink:href="#ArialMT-2d" x="111.230469"/>
      <use xlink:href="#ArialMT-35" x="144.53125"/>
      <use xlink:href="#ArialMT-30" x="200.146484"/>
     </g>
    </g>
    <g id="patch_153">
     <path d="M 903.169219 138.772812 
L 925.169219 138.772812 
L 925.169219 131.072812 
L 903.169219 131.072812 
z
" style="fill: #937860; stroke: #ffffff; stroke-linejoin: miter"/>
    </g>
    <g id="text_33">
     <!-- 51-55 -->
     <g style="fill: #262626" transform="translate(933.969219 138.772812)scale(0.11 -0.11)">
      <use xlink:href="#ArialMT-35"/>
      <use xlink:href="#ArialMT-31" x="55.615234"/>
      <use xlink:href="#ArialMT-2d" x="111.230469"/>
      <use xlink:href="#ArialMT-35" x="144.53125"/>
      <use xlink:href="#ArialMT-35" x="200.146484"/>
     </g>
    </g>
    <g id="patch_154">
     <path d="M 903.169219 154.332656 
L 925.169219 154.332656 
L 925.169219 146.632656 
L 903.169219 146.632656 
z
" style="fill: #da8bc3; stroke: #ffffff; stroke-linejoin: miter"/>
    </g>
    <g id="text_34">
     <!-- 55+ -->
     <g style="fill: #262626" transform="translate(933.969219 154.332656)scale(0.11 -0.11)">
      <defs>
       <path id="ArialMT-2b" d="M 1603 741 
L 1603 1997 
L 356 1997 
L 356 2522 
L 1603 2522 
L 1603 3769 
L 2134 3769 
L 2134 2522 
L 3381 2522 
L 3381 1997 
L 2134 1997 
L 2134 741 
L 1603 741 
z
" transform="scale(0.015625)"/>
      </defs>
      <use xlink:href="#ArialMT-35"/>
      <use xlink:href="#ArialMT-35" x="55.615234"/>
      <use xlink:href="#ArialMT-2b" x="111.230469"/>
     </g>
    </g>
   </g>
  </g>
 </g>
 <defs>
  <clipPath id="p3439b8b87d">
   <rect x="135" y="43.2" width="837" height="277.2"/>
  </clipPath>
 </defs>
</svg>
